<?xml version="1.0" encoding="UTF-8"?>
<svg id="Layer_3" data-name="Layer 3" xmlns="http://www.w3.org/2000/svg" viewBox="0 0 560 560">
  <defs>
    <style>
      .cls-1 {
        fill: #fff;
      }

      .cls-2 {
        fill: #0093de;
      }
    </style>
  </defs>
  <g id="Layer_1" data-name="Layer 1">
    <circle class="cls-1" cx="280" cy="280" r="280"/>
    <g>
      <path class="cls-2" d="M139.22,287.09s26.84-1.04,50.63,7.85c23.79,8.89,42.06,24.63,50.83,31.96s33.64,31,53.59,39.89,25.95,4.81,25.95,4.81c0,0-8.48,14.51-38.33,1.68-31.6-13.58-65.61-47.46-75.82-54.67-10.21-7.21-22.83-15.74-36.89-21.63-14.06-5.89-29.96-9.89-29.96-9.89Z"/>
      <path class="cls-2" d="M149.72,220.68s30.4-66.09,36.05-72.94c5.65-6.85,16.22-6.13,27.4-6.13s40.09,3.68,40.09,3.68c0,0-8.15,1.45-20.4,1.85-9.44.31-23.95,1.1-27.55,4.07-15.22,12.58-55.59,69.45-55.59,69.45Z"/>
      <path class="cls-2" d="M268.92,145.78s44.22,8.57,44.22,29.36-29.56,47.82-90.36,61.88-83.27,12.5-83.27,12.5c0,0,43.74,8.05,107.3-7.33s87.84-48.74,87.84-62.84-14.78-34.05-65.73-33.56Z"/>
      <path class="cls-2" d="M210.73,255.18l-18.44,2.11s10.69,26.28,27.04,39.41c16.34,13.14,40.69,20.27,55.03,20.27s43.98-7.53,63.04-28.2c19.07-20.67,24.15-37.33,24.15-59.32,0-20.19-5.2-31.97-10.46-41.21-2.66-4.66-11.65-18.03-11.65-18.03,0,0,3.54,8.65.48,17.36-1.91,5.42-3.79,9.12-4.94,11.14-.61,1.06-.54,2.38.17,3.37,2.22,3.08,6.49,11.28,6.49,28.77,0,23.63-22.91,66.09-67.29,66.09-39.07,0-57.22-32.54-61-40.32-.48-.99-1.54-1.57-2.63-1.44Z"/>
      <path class="cls-2" d="M264.59,369.92s-44.94,15.62-79.07,34.49c-34.13,18.87-68.25,48.54-68.25,48.54,0,0,13.82-26.8,47.34-54.55s74.74-45.3,74.74-45.3c0,0,11.48,9.91,25.23,16.82Z"/>
      <path class="cls-2" d="M266.51,341.24s51.36-18.22,75.06-26.03c27.52-9.07,51.38-15.91,67.81-23.03,12.89-5.59,40.61-21.39,48.66-28.12,8.05-6.73,19.23-22.11,19.23-22.11,0,0-7.09,21.03-20.07,35.93-12.98,14.9-21.99,24.83-46.62,39.09-24.63,14.26-57.44,24.95-75.94,31.08s-36.41,13.22-38.33,12.74-6.13-1.6-29.8-19.55Z"/>
      <path class="cls-2" d="M337.73,311.32s4.63-14.91,17.22-25.39c10.03-8.35,20.55-8.89,20.55-8.89,0,0-8.05,3.32-14.42,12.47-4.44,6.38-6.93,11.68-8.69,15.93-1.38,3.33-1.5,2.76-14.66,5.89Z"/>
      <path class="cls-2" d="M328.88,355.86s5.68-1.62,7.72-2.28,5.08-1.5,5.08-1.5c0,0-.84,6.25-5.95,12.26s-8.11,7.03-8.11,7.03c0,0,.21-1.47.21-3.15s-.12-3.24-.12-3.24c0,0-.81.72-1.77,1.17s-2.1.39-2.1.39c0,0,4.69-6.76,5.05-10.66Z"/>
      <path class="cls-2" d="M211.84,153.27s24.26,9.03,40.49,16.94c16.26,7.93,41.94,23.91,42.42,24.75s-2.12,5.53-7.09,5.53-10.57-8.73-27.88-19.71c-17.3-10.97-47.94-27.52-47.94-27.52Z"/>
      <path class="cls-2" d="M224.28,153.27s27.22,5.11,40.37,9.43,17.54,5.89,21.39,7.87,5.83,3.3,7.99,3.36,4.93-.96,4.93-3.24-21.45-8.23-41.09-12.62c-19.65-4.39-33.58-4.81-33.58-4.81Z"/>
      <path class="cls-2" d="M239,268.99s31.48,2.77,71.13-17.36,36.53-39.84,36.53-39.84l-5.05,28.66s-9.86,14.84-46.81,24.69-55.81,3.85-55.81,3.85Z"/>
      <path class="cls-2" d="M282.61,282.36s13.54-1.12,36.85-14.82c23.31-13.7,21.23-31.08,21.23-31.08l-2.96,23.87s-8.65,8.97-24.99,15.46-30.12,6.57-30.12,6.57Z"/>
    </g>
  </g>
</svg>